<?xml version="1.0" encoding="utf-8"?>
<!-- Generator: Adobe Illustrator 25.2.3, SVG Export Plug-In . SVG Version: 6.00 Build 0)  -->
<svg version="1.1" id="Layer_1" xmlns="http://www.w3.org/2000/svg" xmlns:xlink="http://www.w3.org/1999/xlink" x="0px" y="0px"
	 viewBox="0 0 1700.8 1700.8" style="enable-background:new 0 0 1700.8 1700.8;" xml:space="preserve">
<style type="text/css">
	.st0{fill-rule:evenodd;clip-rule:evenodd;fill:#263F92;}
	.st1{fill-rule:evenodd;clip-rule:evenodd;fill:#FFFFFF;}
	.st2{fill:#FFFFFF;}
</style>
<g>
	<polygon class="st0" points="1700.8,0 0,0 0,1700.8 1700.8,1700.8 1700.8,0 	"/>
	<path class="st1" d="M524.6,623.6c12.6,0,22.9,10.2,22.9,22.7c0,12.5-10.2,22.7-22.9,22.7c-12.6,0-22.9-10.2-22.9-22.7
		C501.7,633.7,511.9,623.6,524.6,623.6"/>
	<path class="st2" d="M595.4,668.9c1.1,0,2.4,0,3.4-0.2c12.4-1.9,21.2-13.3,19.2-25.8c-1.9-12.3-13.5-21-26.1-19.1
		c-12.4,1.9-21.2,13.3-19.2,25.8C574.4,660.6,584,668.9,595.4,668.9"/>
	<path class="st2" d="M661.6,667.8c1.7,0.4,3.4,0.6,5.1,0.6c4.3,0,8.3-1.3,12.2-3.4c5.1-3.2,8.8-8.3,10.3-14.2
		c1.3-5.9,0.4-12.1-3-17.2c-3.2-5.1-8.3-8.7-14.3-10.2c-6-1.3-12.2-0.4-17.3,3c-5.1,3.2-8.8,8.3-10.3,14.2
		C641.5,652.8,649.2,665.1,661.6,667.8"/>
	<path class="st2" d="M1099.4,670.6h0.4l164.2-1.1c13.9,0,25-11.2,25-25c0-13.8-11.3-24.8-25.2-24.8l-164.2,1.1
		c-13.9,0-25,11.2-25,25c0,6.8,2.8,13.1,7.5,17.8C1086.8,668.3,1092.8,670.6,1099.4,670.6"/>
	<path class="st1" d="M524.6,783c12.6,0,22.9,10.2,22.9,22.7c0,12.5-10.2,22.7-22.9,22.7c-12.6,0-22.9-10.2-22.9-22.7
		C501.7,793.2,511.9,783,524.6,783"/>
	<path class="st2" d="M595.4,828.2c1.1,0,2.4,0,3.4-0.2c12.4-1.9,21.2-13.3,19.2-25.8c-1.9-12.3-13.5-21-26.1-19.1
		c-12.4,1.9-21.2,13.3-19.2,25.8C574.4,820.1,584,828.2,595.4,828.2"/>
	<path class="st2" d="M661.6,827.3c1.7,0.4,3.4,0.6,5.1,0.6c4.3,0,8.3-1.3,12.2-3.4c5.1-3.2,8.8-8.3,10.3-14.2
		c1.3-5.9,0.4-12.1-3-17.2c-3.2-5.1-8.3-8.7-14.3-10.2c-6-1.3-12.2-0.4-17.3,3c-5.1,3.2-8.8,8.3-10.3,14.2
		C641.5,812.3,649.2,824.3,661.6,827.3"/>
	<path class="st2" d="M1099.4,830.1h0.4l164.2-1.1c13.9,0,25-11.2,25-25c0-13.8-11.3-24.8-25.2-24.8l-164.2,1.1
		c-13.9,0-25,11.2-25,25c0,6.8,2.8,13.1,7.5,17.8C1086.8,827.7,1092.8,830.1,1099.4,830.1"/>
	<path class="st2" d="M524.6,989.3c12.6,0,22.9-10.2,22.9-22.7c0-12.5-10.3-22.7-22.9-22.7c-12.6,0-22.9,10.2-22.9,22.7
		C501.5,979.2,512,989.3,524.6,989.3"/>
	<path class="st2" d="M581.7,984.9c4.1,3,8.8,4.4,13.5,4.4c1.1,0,2.4,0,3.4-0.2c6-0.8,11.3-4,15-8.9c3.6-4.9,5.1-10.8,4.3-16.7
		c-0.9-5.9-4.1-11.2-9-14.8c-4.9-3.6-10.9-5.1-16.9-4.2c-6,0.8-11.3,4-15,8.9c-3.6,4.9-5.1,10.8-4.3,16.7
		C573.5,976,576.7,981.3,581.7,984.9"/>
	<path class="st2" d="M661.6,988.3c1.7,0.4,3.4,0.6,5.1,0.6c4.3,0,8.3-1.3,12.2-3.4c5.1-3.2,8.8-8.3,10.3-14.2
		c2.8-12.1-4.9-24.4-17.1-27.1c-12.4-2.8-24.6,4.9-27.4,16.9c-1.3,5.9-0.4,12.1,3,17.2C650.5,983.2,655.7,986.8,661.6,988.3"/>
	<path class="st2" d="M1099.4,991h0.4l164.2-1.1c13.9,0,25-11.2,25-25c0-13.8-11.3-24.8-25.2-24.8l-164.2,1.1c-13.9,0-25,11.2-25,25
		c0,6.8,2.8,13.1,7.5,17.8C1086.8,988.7,1092.8,991,1099.4,991"/>
	<path class="st2" d="M1322.2,689.7H471.5v-88.5h850.7V689.7L1322.2,689.7z M1322.2,848.9H471.5v-88.5h850.7V848.9L1322.2,848.9z
		 M1322.2,1011.1H471.5v-91.1h850.7V1011.1L1322.2,1011.1z M1143.7,1213.8c-11.6,12.7-13.3,14-19.5,14h-0.2
		c-7.9,0-9.6-1.3-22.9-17.4c-15.2-18.4-40.6-49.6-87.5-49.6h-0.6c-45.6,0.2-70.8,30.7-85.8,48.7c-1.5,1.5-2.8,3.2-3.8,4.4
		c-11.5,12.7-13.3,14-19.7,14c-7.9,0-9.6-1.3-22.9-17.4c-15.2-18.4-40.6-49.6-87.5-49.6h-0.6c-45.6,0.2-70.8,30.7-85.8,48.7
		c-1.5,1.5-2.8,3-3.9,4.4c-11.5,12.7-13.3,14-19.5,14h-0.2c-7.9,0-9.6-1.3-22.9-17.4c-11.8-14.4-29.1-35.4-57.1-44.7l-0.9-86.4
		h586.2l0.4,92.6c-18.8,10.4-31.4,25.6-41.1,37.3C1146,1211.1,1144.7,1212.5,1143.7,1213.8 M1474.5,1168.9
		c-5.3-5.5-12.4-8.5-19.9-8.5h-0.6c-45.5,0.2-70.8,30.7-85.8,48.7c-1.5,1.5-2.8,3.2-3.8,4.4c-11.3,12.7-13.5,13.8-19.9,14
		c-7.9,0-9.6-1.5-22.9-17.4c-13.3-16.3-34.6-42.4-71.9-48.3l-0.4-82H1353c8.3,0,16-3.8,22-10.6c5.3-5.9,8.3-14.6,8.3-23.5V567.2
		c0-18.9-13.7-34.3-30.6-34.3H440.7c-8.3,0-16,3.8-22,10.6c-5.3,5.9-8.3,14.6-8.3,23.5v478.6c0,18.8,13.7,34.3,30.6,34.3H541
		l0.4,86.8c-27.4,9.5-44.3,29.6-55.8,43.8c-1.5,1.5-2.8,3-3.8,4.2c-11.5,12.7-13.3,14-19.5,14h-0.2c-7.9,0-9.6-1.3-22.9-17.4
		c-15.2-18.4-40.6-49.6-87.5-49.6h-0.2c-16.7,0-30.4,15.5-30.4,34.3c0,18.8,13.7,34.3,30.6,34.3c19.7,0,30.4,12.7,42.3,27.5
		c15.2,18.6,32.5,39.6,68,39.6c32.7,0,50.3-19.7,62.9-34.1c0.6-0.6,1.3-1.5,2.1-2.3c0.4-0.6,1.1-1.1,1.5-1.7l1.5-1.7
		c13.9-16.9,23.5-27.3,41.7-27.5h0.4c19.7,0,30.4,12.7,42.3,27.5c15.2,18.6,32.5,39.6,68,39.6c32.7,0,50.3-19.7,62.9-34.1
		c0.6-0.6,1.3-1.5,2.1-2.3c0.4-0.6,1.1-1.1,1.5-1.7l1.5-1.7c13.9-16.9,23.5-27.3,41.7-27.5h0.4c19.7,0,30.4,12.7,42.3,27.5
		c15.2,18.6,32.5,39.6,68,39.6c32.7,0,50.3-19.7,62.9-34.1c0.6-0.6,1.3-1.5,2.1-2.3c0.4-0.6,1.1-1.1,1.5-1.7l1.5-1.7
		c13.9-16.9,23.5-27.3,41.7-27.5h0.4c18.4,0,28.2,10.4,42.3,27.5c15.2,18.6,32.5,39.6,67.8,39.6h0.9c32.1,0,49.6-19.7,62.2-34.1
		c0.6-0.6,1.3-1.5,2.1-2.3c0.4-0.6,1.1-1.1,1.5-1.7l1.5-1.7c13.9-16.9,23.5-27.3,41.7-27.5h0.4c18.4,0,28.2,10.4,42.3,27.5
		c15.2,18.6,32.5,39.6,68,39.6h0.6c32.5-0.2,49.8-19.7,62.4-34.1c0.6-0.6,1.3-1.5,2.1-2.3c0.4-0.6,1.1-1.1,1.5-1.7l1.5-1.7
		c12.2-14.8,22.7-27.5,42.1-27.5c17.1,0,30.6-15,30.6-34.1C1485,1185.6,1481.3,1175.7,1474.5,1168.9"/>
	<path class="st2" d="M364.4,455.6c4.7,12.1,16,19.7,28.7,19.7c4.1,0,7.7-0.8,10.1-1.7l0.4-0.2c7.7-2.8,13.7-8.5,17.1-15.7
		c3.4-7.4,3.6-15.7,0.9-23.1l-29.1-76.5c-2.8-7.6-8.6-13.6-15.8-16.9c-7.5-3.4-15.8-3.6-23.3-0.9c-7.7,2.8-13.7,8.5-17.1,15.7
		c-3.4,7.4-3.6,15.7-0.6,23.1L364.4,455.6L364.4,455.6z"/>
	<path class="st2" d="M334.5,629.3c15.6-6.4,23.3-23.3,17.5-39c-2.8-7.6-8.6-13.6-15.8-16.9c-7.5-3.4-15.8-3.6-23.3-0.8l-77.2,28.8
		c-7.7,2.8-13.7,8.5-17.1,15.7c-3.4,7.4-3.6,15.7-0.6,23.3c4.7,11.9,16,19.5,28.7,19.5c4.1,0,7.7-0.8,10-1.7l77.6-29L334.5,629.3
		L334.5,629.3z"/>
	<path class="st2" d="M234.2,504.6l65.7,29.4c3.8,1.7,8.1,2.5,12.8,2.5c12,0,22.9-7,27.8-17.8c3.4-7.4,3.6-15.7,0.6-23.3
		c-3-7.6-8.5-13.6-15.8-16.5l-65.7-29.4c-7.5-3.4-15.8-3.6-23.5-0.6c-7.5,3-13.5,8.5-16.7,15.7c-3.4,7.2-3.8,15.5-1.1,22.9
		C220.9,495,226.7,501.2,234.2,504.6"/>
</g>
</svg>
